<svg width="25" height="25" viewBox="0 0 25 25" fill="none" xmlns="http://www.w3.org/2000/svg">
<path d="M12.1084 3.06202L5.10847 3.02582C4.57804 3.02307 4.06825 3.23115 3.69124 3.60428C3.31424 3.97741 3.1009 4.48502 3.09815 5.01545L3.02575 19.0153C3.02301 19.5457 3.23109 20.0555 3.60421 20.4325C3.97734 20.8095 4.48495 21.0228 5.01538 21.0256L19.0152 21.098C19.5456 21.1007 20.0554 20.8926 20.4324 20.5195C20.8094 20.1464 21.0228 19.6388 21.0255 19.1083L21.0617 12.1084" stroke="black" stroke-width="2" stroke-linecap="round" stroke-linejoin="round"/>
<path d="M18.4856 2.71999C18.8855 2.32423 19.4262 2.10353 19.9888 2.10644C20.5514 2.10935 21.0898 2.33563 21.4856 2.73551C21.8813 3.13539 22.102 3.6761 22.0991 4.2387C22.0962 4.8013 21.8699 5.33971 21.4701 5.73547L12.4106 14.7027C12.1719 14.9388 11.8776 15.1109 11.555 15.2033L8.67765 16.0284C8.59147 16.0531 8.50025 16.0541 8.41354 16.0314C8.32683 16.0087 8.24781 15.9632 8.18476 15.8995C8.1217 15.8357 8.07694 15.7563 8.05514 15.6693C8.03335 15.5824 8.03532 15.4912 8.06086 15.4053L8.91571 12.5366C9.0119 12.2152 9.18742 11.9231 9.42611 11.6873L18.4856 2.71999Z" stroke="black" stroke-width="2" stroke-linecap="round" stroke-linejoin="round"/>
</svg>
