<svg width="30" height="30" viewBox="0 0 30 30" fill="none" xmlns="http://www.w3.org/2000/svg">
<path d="M26.4446 14.9333H11.0695M5.64245 14.9333H3.42236M5.64245 14.9333C5.64245 14.2138 5.92827 13.5238 6.43704 13.015C6.9458 12.5063 7.63584 12.2204 8.35534 12.2204C9.07484 12.2204 9.76488 12.5063 10.2736 13.015C10.7824 13.5238 11.0682 14.2138 11.0682 14.9333C11.0682 15.6528 10.7824 16.3429 10.2736 16.8516C9.76488 17.3604 9.07484 17.6462 8.35534 17.6462C7.63584 17.6462 6.9458 17.3604 6.43704 16.8516C5.92827 16.3429 5.64245 15.6528 5.64245 14.9333ZM26.4446 23.1554H19.2915M19.2915 23.1554C19.2915 23.875 19.005 24.5659 18.4961 25.0747C17.9872 25.5836 17.2971 25.8695 16.5774 25.8695C15.8579 25.8695 15.1678 25.5824 14.6591 25.0737C14.1503 24.5649 13.8645 23.8749 13.8645 23.1554M19.2915 23.1554C19.2915 22.4357 19.005 21.7461 18.4961 21.2373C17.9872 20.7284 17.2971 20.4425 16.5774 20.4425C15.8579 20.4425 15.1678 20.7283 14.6591 21.2371C14.1503 21.7458 13.8645 22.4359 13.8645 23.1554M13.8645 23.1554H3.42236M26.4446 6.71129H22.5806M17.1536 6.71129H3.42236M17.1536 6.71129C17.1536 5.99178 17.4394 5.30175 17.9481 4.79298C18.4569 4.28422 19.1469 3.9984 19.8665 3.9984C20.2227 3.9984 20.5755 4.06857 20.9046 4.2049C21.2338 4.34124 21.5328 4.54107 21.7848 4.79298C22.0367 5.0449 22.2365 5.34397 22.3728 5.67311C22.5092 6.00225 22.5793 6.35503 22.5793 6.71129C22.5793 7.06755 22.5092 7.42032 22.3728 7.74946C22.2365 8.07861 22.0367 8.37767 21.7848 8.62959C21.5328 8.8815 21.2338 9.08133 20.9046 9.21767C20.5755 9.354 20.2227 9.42417 19.8665 9.42417C19.1469 9.42417 18.4569 9.13835 17.9481 8.62959C17.4394 8.12082 17.1536 7.43079 17.1536 6.71129Z" stroke="white" stroke-width="1.5" stroke-miterlimit="10" stroke-linecap="round"/>
</svg>
